<svg xmlns="http://www.w3.org/2000/svg" xmlns:xlink="http://www.w3.org/1999/xlink" width="35.321" height="34.507" viewBox="0 0 35.321 34.507">
  <defs>
    <linearGradient id="linear-gradient" x1="0.083" y1="0.911" x2="0.896" y2="0.126" gradientUnits="objectBoundingBox">
      <stop offset="0" stop-color="#014d3e"/>
      <stop offset="0.169" stop-color="#085849"/>
      <stop offset="0.465" stop-color="#1c7465"/>
      <stop offset="0.849" stop-color="#3ba294"/>
      <stop offset="1" stop-color="#49b6a8"/>
    </linearGradient>
    <linearGradient id="linear-gradient-2" x1="0.118" y1="1.02" x2="0.802" y2="0.087" xlink:href="#linear-gradient"/>
  </defs>
  <g id="Group_1111" data-name="Group 1111" transform="matrix(-0.999, -0.035, 0.035, -0.999, 34.446, 34.507)">
    <path id="Path_1381" data-name="Path 1381" d="M44.834,42.335a6.664,6.664,0,0,0-4.243-8.413A21.784,21.784,0,0,0,23.74,35.348,22.569,22.569,0,0,0,11.864,52.565,2.668,2.668,0,0,0,13.2,55.223a21.839,21.839,0,0,0,20.667.219A22.444,22.444,0,0,0,44.834,42.335Z" transform="translate(-11.843 -32.856)" opacity="0.73" fill="url(#linear-gradient)"/>
    <path id="Path_1382" data-name="Path 1382" d="M45.023,41.177a6.571,6.571,0,0,0-7.133-6.072,22.04,22.04,0,0,0-14.973,8,22.869,22.869,0,0,0-4.255,20.838,2.26,2.26,0,0,0,1.9,1.622,21.955,21.955,0,0,0,19.387-7.974A22.8,22.8,0,0,0,45.023,41.177Z" transform="translate(-10.545 -32.369)" opacity="0.72" fill="url(#linear-gradient-2)"/>
  </g>
</svg>
